{
    "asset" : {
        "generator" : "Khronos glTF Blender I/O v1.8.19",
        "version" : "2.0"
    },
    "scene" : 0,
    "scenes" : [
        {
            "name" : "Scene",
            "nodes" : [
                0
            ]
        }
    ],
    "nodes" : [
        {
            "mesh" : 0,
            "name" : "\u529e\u516c\u697c186"
        }
    ],
    "materials" : [
        {
            "doubleSided" : true,
            "name" : "00\u5206\u5272.011",
            "pbrMetallicRoughness" : {
                "baseColorFactor" : [
                    0.5882350206375122,
                    0.5882350206375122,
                    0.5882350206375122,
                    1
                ],
                "metallicFactor" : 0,
                "roughnessFactor" : 0.8543307185173035
            }
        },
        {
            "doubleSided" : true,
            "name" : "13 - Default.003",
            "pbrMetallicRoughness" : {
                "baseColorFactor" : [
                    0.8549020290374756,
                    0.7803919911384583,
                    0.6980389952659607,
                    1
                ],
                "metallicFactor" : 0,
                "roughnessFactor" : 0.5
            }
        },
        {
            "doubleSided" : true,
            "name" : "Material #15.003",
            "pbrMetallicRoughness" : {
                "baseColorFactor" : [
                    0.2509799897670746,
                    0.2980389893054962,
                    0.34902000427246094,
                    1
                ],
                "metallicFactor" : 0,
                "roughnessFactor" : 0.9251968860626221
            }
        },
        {
            "doubleSided" : true,
            "name" : "00\u73bb\u7483.044",
            "pbrMetallicRoughness" : {
                "baseColorFactor" : [
                    0.564706027507782,
                    0.7372549772262573,
                    0.8352940082550049,
                    1
                ],
                "metallicFactor" : 0,
                "roughnessFactor" : 0
            }
        },
        {
            "doubleSided" : true,
            "name" : "Material #2.003",
            "pbrMetallicRoughness" : {
                "baseColorTexture" : {
                    "index" : 0
                },
                "metallicFactor" : 0,
                "roughnessFactor" : 0.5
            }
        },
        {
            "doubleSided" : true,
            "name" : "00\u8e0f\u6b65.044",
            "pbrMetallicRoughness" : {
                "baseColorTexture" : {
                    "index" : 1
                },
                "metallicFactor" : 0,
                "roughnessFactor" : 0.5
            }
        },
        {
            "doubleSided" : true,
            "name" : "00dx-\u7eff\u5730.002",
            "pbrMetallicRoughness" : {
                "baseColorFactor" : [
                    0.34902000427246094,
                    0.5294119715690613,
                    0.34902000427246094,
                    1
                ],
                "metallicFactor" : 0,
                "roughnessFactor" : 0.5
            }
        },
        {
            "doubleSided" : true,
            "name" : "00\u7a97\u6846s",
            "pbrMetallicRoughness" : {
                "baseColorFactor" : [
                    0.6235290169715881,
                    0.6352940201759338,
                    0.6705880165100098,
                    1
                ],
                "metallicFactor" : 0,
                "roughnessFactor" : 0.5
            }
        },
        {
            "doubleSided" : true,
            "name" : "16 - Default.005",
            "pbrMetallicRoughness" : {
                "baseColorFactor" : [
                    0.3019610047340393,
                    0.3019610047340393,
                    0.3019610047340393,
                    1
                ],
                "metallicFactor" : 0,
                "roughnessFactor" : 0.5
            }
        },
        {
            "doubleSided" : true,
            "name" : "00\u5c42\u677f.044",
            "pbrMetallicRoughness" : {
                "baseColorTexture" : {
                    "index" : 2
                },
                "metallicFactor" : 0,
                "roughnessFactor" : 0.8543307185173035
            }
        }
    ],
    "meshes" : [
        {
            "name" : "Obj3d66-1207533-2171-4",
            "primitives" : [
                {
                    "attributes" : {
                        "POSITION" : 0,
                        "NORMAL" : 1,
                        "TEXCOORD_0" : 2
                    },
                    "indices" : 3,
                    "material" : 0
                },
                {
                    "attributes" : {
                        "POSITION" : 4,
                        "NORMAL" : 5,
                        "TEXCOORD_0" : 6
                    },
                    "indices" : 7,
                    "material" : 1
                },
                {
                    "attributes" : {
                        "POSITION" : 8,
                        "NORMAL" : 9,
                        "TEXCOORD_0" : 10
                    },
                    "indices" : 11,
                    "material" : 2
                },
                {
                    "attributes" : {
                        "POSITION" : 12,
                        "NORMAL" : 13,
                        "TEXCOORD_0" : 14
                    },
                    "indices" : 15,
                    "material" : 3
                },
                {
                    "attributes" : {
                        "POSITION" : 16,
                        "NORMAL" : 17,
                        "TEXCOORD_0" : 18
                    },
                    "indices" : 19,
                    "material" : 4
                },
                {
                    "attributes" : {
                        "POSITION" : 20,
                        "NORMAL" : 21,
                        "TEXCOORD_0" : 22
                    },
                    "indices" : 23,
                    "material" : 5
                },
                {
                    "attributes" : {
                        "POSITION" : 24,
                        "NORMAL" : 25,
                        "TEXCOORD_0" : 26
                    },
                    "indices" : 27,
                    "material" : 6
                },
                {
                    "attributes" : {
                        "POSITION" : 28,
                        "NORMAL" : 29,
                        "TEXCOORD_0" : 30
                    },
                    "indices" : 31,
                    "material" : 7
                },
                {
                    "attributes" : {
                        "POSITION" : 32,
                        "NORMAL" : 33,
                        "TEXCOORD_0" : 34
                    },
                    "indices" : 35,
                    "material" : 8
                },
                {
                    "attributes" : {
                        "POSITION" : 36,
                        "NORMAL" : 37,
                        "TEXCOORD_0" : 38
                    },
                    "indices" : 39,
                    "material" : 9
                }
            ]
        }
    ],
    "textures" : [
        {
            "sampler" : 0,
            "source" : 0
        },
        {
            "sampler" : 0,
            "source" : 1
        },
        {
            "sampler" : 0,
            "source" : 2
        }
    ],
    "images" : [
        {
            "bufferView" : 20,
            "mimeType" : "image/jpeg",
            "name" : "Image_0"
        },
        {
            "bufferView" : 25,
            "mimeType" : "image/jpeg",
            "name" : "Image_1"
        },
        {
            "bufferView" : 42,
            "mimeType" : "image/jpeg",
            "name" : "Image_2"
        }
    ],
    "accessors" : [
        {
            "bufferView" : 0,
            "componentType" : 5126,
            "count" : 4428,
            "max" : [
                32.422271728515625,
                26.195737838745117,
                5.38700008392334
            ],
            "min" : [
                -32.42201614379883,
                0,
                -17.46247100830078
            ],
            "type" : "VEC3"
        },
        {
            "bufferView" : 1,
            "componentType" : 5126,
            "count" : 4428,
            "type" : "VEC3"
        },
        {
            "bufferView" : 2,
            "componentType" : 5126,
            "count" : 4428,
            "type" : "VEC2"
        },
        {
            "bufferView" : 3,
            "componentType" : 5123,
            "count" : 5592,
            "type" : "SCALAR"
        },
        {
            "bufferView" : 4,
            "componentType" : 5126,
            "count" : 3188,
            "max" : [
                32.322235107421875,
                23.195751190185547,
                4.064016342163086
            ],
            "min" : [
                -32.32201385498047,
                3.8877086639404297,
                -15.95600414276123
            ],
            "type" : "VEC3"
        },
        {
            "bufferView" : 5,
            "componentType" : 5126,
            "count" : 3188,
            "type" : "VEC3"
        },
        {
            "bufferView" : 6,
            "componentType" : 5126,
            "count" : 3188,
            "type" : "VEC2"
        },
        {
            "bufferView" : 7,
            "componentType" : 5123,
            "count" : 4104,
            "type" : "SCALAR"
        },
        {
            "bufferView" : 8,
            "componentType" : 5126,
            "count" : 27709,
            "max" : [
                32.52199935913086,
                23.395732879638672,
                4.174017906188965
            ],
            "min" : [
                -32.52199935913086,
                0.10000801086425781,
                -17.562461853027344
            ],
            "type" : "VEC3"
        },
        {
            "bufferView" : 9,
            "componentType" : 5126,
            "count" : 27709,
            "type" : "VEC3"
        },
        {
            "bufferView" : 10,
            "componentType" : 5126,
            "count" : 27709,
            "type" : "VEC2"
        },
        {
            "bufferView" : 11,
            "componentType" : 5123,
            "count" : 34044,
            "type" : "SCALAR"
        },
        {
            "bufferView" : 12,
            "componentType" : 5126,
            "count" : 288,
            "max" : [
                32.0828742980957,
                23.195755004882812,
                3.8246562480926514
            ],
            "min" : [
                -32.082603454589844,
                0.10000801086425781,
                -16.92751693725586
            ],
            "type" : "VEC3"
        },
        {
            "bufferView" : 13,
            "componentType" : 5126,
            "count" : 288,
            "type" : "VEC3"
        },
        {
            "bufferView" : 14,
            "componentType" : 5126,
            "count" : 288,
            "type" : "VEC2"
        },
        {
            "bufferView" : 15,
            "componentType" : 5123,
            "count" : 324,
            "type" : "SCALAR"
        },
        {
            "bufferView" : 16,
            "componentType" : 5126,
            "count" : 1459,
            "max" : [
                32.42226791381836,
                5.100004196166992,
                17.462467193603516
            ],
            "min" : [
                -32.42201232910156,
                0,
                -17.46247100830078
            ],
            "type" : "VEC3"
        },
        {
            "bufferView" : 17,
            "componentType" : 5126,
            "count" : 1459,
            "type" : "VEC3"
        },
        {
            "bufferView" : 18,
            "componentType" : 5126,
            "count" : 1459,
            "type" : "VEC2"
        },
        {
            "bufferView" : 19,
            "componentType" : 5123,
            "count" : 1752,
            "type" : "SCALAR"
        },
        {
            "bufferView" : 21,
            "componentType" : 5126,
            "count" : 1548,
            "max" : [
                32.52199935913086,
                5.200004577636719,
                17.56246566772461
            ],
            "min" : [
                -32.52199935913086,
                3.814697265625e-06,
                -17.56246566772461
            ],
            "type" : "VEC3"
        },
        {
            "bufferView" : 22,
            "componentType" : 5126,
            "count" : 1548,
            "type" : "VEC3"
        },
        {
            "bufferView" : 23,
            "componentType" : 5126,
            "count" : 1548,
            "type" : "VEC2"
        },
        {
            "bufferView" : 24,
            "componentType" : 5123,
            "count" : 2052,
            "type" : "SCALAR"
        },
        {
            "bufferView" : 26,
            "componentType" : 5126,
            "count" : 142,
            "max" : [
                13.66015911102295,
                5.100008010864258,
                17.262470245361328
            ],
            "min" : [
                -13.682432174682617,
                5.7220458984375e-06,
                6.931778430938721
            ],
            "type" : "VEC3"
        },
        {
            "bufferView" : 27,
            "componentType" : 5126,
            "count" : 142,
            "type" : "VEC3"
        },
        {
            "bufferView" : 28,
            "componentType" : 5126,
            "count" : 142,
            "type" : "VEC2"
        },
        {
            "bufferView" : 29,
            "componentType" : 5123,
            "count" : 144,
            "type" : "SCALAR"
        },
        {
            "bufferView" : 30,
            "componentType" : 5126,
            "count" : 318,
            "max" : [
                2.7169594764709473,
                18.55518913269043,
                1.5869837999343872
            ],
            "min" : [
                -2.721510410308838,
                5.100006103515625,
                1.386983036994934
            ],
            "type" : "VEC3"
        },
        {
            "bufferView" : 31,
            "componentType" : 5126,
            "count" : 318,
            "type" : "VEC3"
        },
        {
            "bufferView" : 32,
            "componentType" : 5126,
            "count" : 318,
            "type" : "VEC2"
        },
        {
            "bufferView" : 33,
            "componentType" : 5123,
            "count" : 372,
            "type" : "SCALAR"
        },
        {
            "bufferView" : 34,
            "componentType" : 5126,
            "count" : 30,
            "max" : [
                2.476959466934204,
                18.315189361572266,
                1.5369837284088135
            ],
            "min" : [
                -2.481510639190674,
                14.208234786987305,
                1.3869831562042236
            ],
            "type" : "VEC3"
        },
        {
            "bufferView" : 35,
            "componentType" : 5126,
            "count" : 30,
            "type" : "VEC3"
        },
        {
            "bufferView" : 36,
            "componentType" : 5126,
            "count" : 30,
            "type" : "VEC2"
        },
        {
            "bufferView" : 37,
            "componentType" : 5123,
            "count" : 36,
            "type" : "SCALAR"
        },
        {
            "bufferView" : 38,
            "componentType" : 5126,
            "count" : 389,
            "max" : [
                32.022315979003906,
                22.037708282470703,
                1.3869199752807617
            ],
            "min" : [
                -32.02200698852539,
                1.9073486328125e-06,
                -17.06246566772461
            ],
            "type" : "VEC3"
        },
        {
            "bufferView" : 39,
            "componentType" : 5126,
            "count" : 389,
            "type" : "VEC3"
        },
        {
            "bufferView" : 40,
            "componentType" : 5126,
            "count" : 389,
            "type" : "VEC2"
        },
        {
            "bufferView" : 41,
            "componentType" : 5123,
            "count" : 504,
            "type" : "SCALAR"
        }
    ],
    "bufferViews" : [
        {
            "buffer" : 0,
            "byteLength" : 53136,
            "byteOffset" : 0
        },
        {
            "buffer" : 0,
            "byteLength" : 53136,
            "byteOffset" : 53136
        },
        {
            "buffer" : 0,
            "byteLength" : 35424,
            "byteOffset" : 106272
        },
        {
            "buffer" : 0,
            "byteLength" : 11184,
            "byteOffset" : 141696
        },
        {
            "buffer" : 0,
            "byteLength" : 38256,
            "byteOffset" : 152880
        },
        {
            "buffer" : 0,
            "byteLength" : 38256,
            "byteOffset" : 191136
        },
        {
            "buffer" : 0,
            "byteLength" : 25504,
            "byteOffset" : 229392
        },
        {
            "buffer" : 0,
            "byteLength" : 8208,
            "byteOffset" : 254896
        },
        {
            "buffer" : 0,
            "byteLength" : 332508,
            "byteOffset" : 263104
        },
        {
            "buffer" : 0,
            "byteLength" : 332508,
            "byteOffset" : 595612
        },
        {
            "buffer" : 0,
            "byteLength" : 221672,
            "byteOffset" : 928120
        },
        {
            "buffer" : 0,
            "byteLength" : 68088,
            "byteOffset" : 1149792
        },
        {
            "buffer" : 0,
            "byteLength" : 3456,
            "byteOffset" : 1217880
        },
        {
            "buffer" : 0,
            "byteLength" : 3456,
            "byteOffset" : 1221336
        },
        {
            "buffer" : 0,
            "byteLength" : 2304,
            "byteOffset" : 1224792
        },
        {
            "buffer" : 0,
            "byteLength" : 648,
            "byteOffset" : 1227096
        },
        {
            "buffer" : 0,
            "byteLength" : 17508,
            "byteOffset" : 1227744
        },
        {
            "buffer" : 0,
            "byteLength" : 17508,
            "byteOffset" : 1245252
        },
        {
            "buffer" : 0,
            "byteLength" : 11672,
            "byteOffset" : 1262760
        },
        {
            "buffer" : 0,
            "byteLength" : 3504,
            "byteOffset" : 1274432
        },
        {
            "buffer" : 0,
            "byteLength" : 120180,
            "byteOffset" : 1277936
        },
        {
            "buffer" : 0,
            "byteLength" : 18576,
            "byteOffset" : 1398116
        },
        {
            "buffer" : 0,
            "byteLength" : 18576,
            "byteOffset" : 1416692
        },
        {
            "buffer" : 0,
            "byteLength" : 12384,
            "byteOffset" : 1435268
        },
        {
            "buffer" : 0,
            "byteLength" : 4104,
            "byteOffset" : 1447652
        },
        {
            "buffer" : 0,
            "byteLength" : 91327,
            "byteOffset" : 1451756
        },
        {
            "buffer" : 0,
            "byteLength" : 1704,
            "byteOffset" : 1543084
        },
        {
            "buffer" : 0,
            "byteLength" : 1704,
            "byteOffset" : 1544788
        },
        {
            "buffer" : 0,
            "byteLength" : 1136,
            "byteOffset" : 1546492
        },
        {
            "buffer" : 0,
            "byteLength" : 288,
            "byteOffset" : 1547628
        },
        {
            "buffer" : 0,
            "byteLength" : 3816,
            "byteOffset" : 1547916
        },
        {
            "buffer" : 0,
            "byteLength" : 3816,
            "byteOffset" : 1551732
        },
        {
            "buffer" : 0,
            "byteLength" : 2544,
            "byteOffset" : 1555548
        },
        {
            "buffer" : 0,
            "byteLength" : 744,
            "byteOffset" : 1558092
        },
        {
            "buffer" : 0,
            "byteLength" : 360,
            "byteOffset" : 1558836
        },
        {
            "buffer" : 0,
            "byteLength" : 360,
            "byteOffset" : 1559196
        },
        {
            "buffer" : 0,
            "byteLength" : 240,
            "byteOffset" : 1559556
        },
        {
            "buffer" : 0,
            "byteLength" : 72,
            "byteOffset" : 1559796
        },
        {
            "buffer" : 0,
            "byteLength" : 4668,
            "byteOffset" : 1559868
        },
        {
            "buffer" : 0,
            "byteLength" : 4668,
            "byteOffset" : 1564536
        },
        {
            "buffer" : 0,
            "byteLength" : 3112,
            "byteOffset" : 1569204
        },
        {
            "buffer" : 0,
            "byteLength" : 1008,
            "byteOffset" : 1572316
        },
        {
            "buffer" : 0,
            "byteLength" : 12584,
            "byteOffset" : 1573324
        }
    ],
    "samplers" : [
        {
            "magFilter" : 9729,
            "minFilter" : 9987
        }
    ],
    "buffers" : [
        {
            "byteLength" : 1585908,
            "uri" : "data:application/octet-stream;base64,"
        }
    ]
}
